<mxfile host="app.diagrams.net" modified="2020-10-19T14:15:12.739Z" agent="5.0 (Windows NT 10.0; WOW64) AppleWebKit/537.36 (KHTML, like Gecko) Chrome/78.0.3904.108 Safari/537.36" etag="S_lcGmhq6O62kvU0nWUU" version="13.8.0" type="github">
  <diagram id="yHeF4_bzrxLTXPKwY5sZ" name="Page-1">
    <mxGraphModel dx="2203" dy="1894" grid="1" gridSize="10" guides="1" tooltips="1" connect="1" arrows="1" fold="1" page="1" pageScale="1" pageWidth="827" pageHeight="1169" math="0" shadow="0">
      <root>
        <mxCell id="0" />
        <mxCell id="1" parent="0" />
        <mxCell id="8tCWAQmAQTB_diqJKxat-84" style="edgeStyle=orthogonalEdgeStyle;rounded=0;orthogonalLoop=1;jettySize=auto;html=1;entryX=1;entryY=0.5;entryDx=0;entryDy=0;" parent="1" source="8tCWAQmAQTB_diqJKxat-1" target="8tCWAQmAQTB_diqJKxat-30" edge="1">
          <mxGeometry relative="1" as="geometry" />
        </mxCell>
        <mxCell id="8tCWAQmAQTB_diqJKxat-94" style="edgeStyle=orthogonalEdgeStyle;rounded=0;orthogonalLoop=1;jettySize=auto;html=1;entryX=0;entryY=0.5;entryDx=0;entryDy=0;" parent="1" source="8tCWAQmAQTB_diqJKxat-1" target="8tCWAQmAQTB_diqJKxat-35" edge="1">
          <mxGeometry relative="1" as="geometry" />
        </mxCell>
        <mxCell id="8tCWAQmAQTB_diqJKxat-104" style="edgeStyle=orthogonalEdgeStyle;rounded=0;orthogonalLoop=1;jettySize=auto;html=1;" parent="1" source="8tCWAQmAQTB_diqJKxat-1" target="8tCWAQmAQTB_diqJKxat-37" edge="1">
          <mxGeometry relative="1" as="geometry" />
        </mxCell>
        <mxCell id="8tCWAQmAQTB_diqJKxat-114" style="edgeStyle=orthogonalEdgeStyle;rounded=0;orthogonalLoop=1;jettySize=auto;html=1;" parent="1" source="8tCWAQmAQTB_diqJKxat-1" target="8tCWAQmAQTB_diqJKxat-55" edge="1">
          <mxGeometry relative="1" as="geometry">
            <Array as="points">
              <mxPoint x="725" y="310" />
              <mxPoint x="725" y="310" />
            </Array>
          </mxGeometry>
        </mxCell>
        <mxCell id="8tCWAQmAQTB_diqJKxat-1" value="商家管理员" style="shape=umlActor;verticalLabelPosition=bottom;verticalAlign=top;html=1;outlineConnect=0;" parent="1" vertex="1">
          <mxGeometry x="700" y="190" width="50" height="90" as="geometry" />
        </mxCell>
        <mxCell id="abcYgRZNAxs5nldRiDmo-40" style="edgeStyle=orthogonalEdgeStyle;rounded=0;orthogonalLoop=1;jettySize=auto;html=1;entryX=0;entryY=0.671;entryDx=0;entryDy=0;entryPerimeter=0;startArrow=none;startFill=0;endArrow=classic;endFill=1;" edge="1" parent="1" target="8tCWAQmAQTB_diqJKxat-13">
          <mxGeometry relative="1" as="geometry">
            <mxPoint x="155" y="270" as="sourcePoint" />
            <Array as="points">
              <mxPoint x="155" y="207" />
            </Array>
          </mxGeometry>
        </mxCell>
        <mxCell id="8tCWAQmAQTB_diqJKxat-3" value="客户" style="shape=umlActor;verticalLabelPosition=bottom;verticalAlign=top;html=1;outlineConnect=0;" parent="1" vertex="1">
          <mxGeometry x="130" y="280" width="50" height="90" as="geometry" />
        </mxCell>
        <mxCell id="8tCWAQmAQTB_diqJKxat-96" style="edgeStyle=orthogonalEdgeStyle;rounded=0;orthogonalLoop=1;jettySize=auto;html=1;" parent="1" source="8tCWAQmAQTB_diqJKxat-1" edge="1">
          <mxGeometry relative="1" as="geometry">
            <mxPoint x="600" y="620" as="targetPoint" />
            <Array as="points">
              <mxPoint x="660" y="250" />
              <mxPoint x="660" y="470" />
              <mxPoint x="600" y="470" />
            </Array>
          </mxGeometry>
        </mxCell>
        <mxCell id="8tCWAQmAQTB_diqJKxat-97" style="edgeStyle=orthogonalEdgeStyle;rounded=0;orthogonalLoop=1;jettySize=auto;html=1;" parent="1" target="8tCWAQmAQTB_diqJKxat-43" edge="1">
          <mxGeometry relative="1" as="geometry">
            <mxPoint x="760" y="260" as="sourcePoint" />
            <Array as="points">
              <mxPoint x="770" y="260" />
              <mxPoint x="770" y="410" />
              <mxPoint x="810" y="410" />
            </Array>
          </mxGeometry>
        </mxCell>
        <mxCell id="8tCWAQmAQTB_diqJKxat-99" style="edgeStyle=orthogonalEdgeStyle;rounded=0;orthogonalLoop=1;jettySize=auto;html=1;" parent="1" source="8tCWAQmAQTB_diqJKxat-6" target="8tCWAQmAQTB_diqJKxat-59" edge="1">
          <mxGeometry relative="1" as="geometry">
            <Array as="points">
              <mxPoint x="1190" y="205" />
            </Array>
          </mxGeometry>
        </mxCell>
        <mxCell id="8tCWAQmAQTB_diqJKxat-101" style="edgeStyle=orthogonalEdgeStyle;rounded=0;orthogonalLoop=1;jettySize=auto;html=1;" parent="1" source="8tCWAQmAQTB_diqJKxat-6" target="8tCWAQmAQTB_diqJKxat-50" edge="1">
          <mxGeometry relative="1" as="geometry" />
        </mxCell>
        <mxCell id="8tCWAQmAQTB_diqJKxat-105" style="edgeStyle=orthogonalEdgeStyle;rounded=0;orthogonalLoop=1;jettySize=auto;html=1;" parent="1" source="8tCWAQmAQTB_diqJKxat-6" target="8tCWAQmAQTB_diqJKxat-35" edge="1">
          <mxGeometry relative="1" as="geometry">
            <Array as="points">
              <mxPoint x="1175" y="135" />
            </Array>
          </mxGeometry>
        </mxCell>
        <mxCell id="abcYgRZNAxs5nldRiDmo-22" style="edgeStyle=orthogonalEdgeStyle;rounded=0;orthogonalLoop=1;jettySize=auto;html=1;entryX=0.5;entryY=0;entryDx=0;entryDy=0;startArrow=none;startFill=0;endArrow=classic;endFill=1;" edge="1" parent="1" source="8tCWAQmAQTB_diqJKxat-6" target="8tCWAQmAQTB_diqJKxat-33">
          <mxGeometry relative="1" as="geometry">
            <Array as="points">
              <mxPoint x="1175" y="400" />
              <mxPoint x="1010" y="400" />
            </Array>
          </mxGeometry>
        </mxCell>
        <mxCell id="8tCWAQmAQTB_diqJKxat-6" value="平台管理员" style="shape=umlActor;verticalLabelPosition=bottom;verticalAlign=top;html=1;outlineConnect=0;" parent="1" vertex="1">
          <mxGeometry x="1150" y="260" width="50" height="90" as="geometry" />
        </mxCell>
        <mxCell id="abcYgRZNAxs5nldRiDmo-14" style="edgeStyle=orthogonalEdgeStyle;rounded=0;orthogonalLoop=1;jettySize=auto;html=1;startArrow=classic;startFill=1;endArrow=none;endFill=0;" edge="1" parent="1" source="8tCWAQmAQTB_diqJKxat-12">
          <mxGeometry relative="1" as="geometry">
            <mxPoint x="120" y="315" as="targetPoint" />
          </mxGeometry>
        </mxCell>
        <mxCell id="8tCWAQmAQTB_diqJKxat-12" value="注册" style="ellipse;whiteSpace=wrap;html=1;" parent="1" vertex="1">
          <mxGeometry x="-80" y="280" width="100" height="70" as="geometry" />
        </mxCell>
        <mxCell id="8tCWAQmAQTB_diqJKxat-117" style="edgeStyle=orthogonalEdgeStyle;rounded=0;orthogonalLoop=1;jettySize=auto;html=1;startArrow=classic;startFill=1;endArrow=none;endFill=0;" parent="1" source="8tCWAQmAQTB_diqJKxat-13" target="8tCWAQmAQTB_diqJKxat-20" edge="1">
          <mxGeometry relative="1" as="geometry" />
        </mxCell>
        <mxCell id="abcYgRZNAxs5nldRiDmo-9" style="edgeStyle=orthogonalEdgeStyle;rounded=0;orthogonalLoop=1;jettySize=auto;html=1;entryX=0.5;entryY=0;entryDx=0;entryDy=0;startArrow=none;startFill=0;endArrow=classic;endFill=1;" edge="1" parent="1" source="8tCWAQmAQTB_diqJKxat-3" target="8tCWAQmAQTB_diqJKxat-25">
          <mxGeometry relative="1" as="geometry">
            <Array as="points" />
          </mxGeometry>
        </mxCell>
        <mxCell id="8tCWAQmAQTB_diqJKxat-13" value="登陆" style="ellipse;whiteSpace=wrap;html=1;" parent="1" vertex="1">
          <mxGeometry x="300" y="160" width="100" height="70" as="geometry" />
        </mxCell>
        <mxCell id="8tCWAQmAQTB_diqJKxat-121" style="edgeStyle=orthogonalEdgeStyle;rounded=0;orthogonalLoop=1;jettySize=auto;html=1;endArrow=classic;endFill=1;startArrow=none;startFill=0;" parent="1" source="8tCWAQmAQTB_diqJKxat-14" target="8tCWAQmAQTB_diqJKxat-15" edge="1">
          <mxGeometry relative="1" as="geometry">
            <Array as="points">
              <mxPoint x="390" y="410" />
              <mxPoint x="390" y="410" />
            </Array>
          </mxGeometry>
        </mxCell>
        <mxCell id="abcYgRZNAxs5nldRiDmo-15" style="edgeStyle=orthogonalEdgeStyle;rounded=0;orthogonalLoop=1;jettySize=auto;html=1;startArrow=classic;startFill=1;endArrow=none;endFill=0;" edge="1" parent="1" source="8tCWAQmAQTB_diqJKxat-14">
          <mxGeometry relative="1" as="geometry">
            <mxPoint x="200" y="315" as="targetPoint" />
          </mxGeometry>
        </mxCell>
        <mxCell id="8tCWAQmAQTB_diqJKxat-14" value="浏览商品" style="ellipse;whiteSpace=wrap;html=1;" parent="1" vertex="1">
          <mxGeometry x="340" y="280" width="100" height="70" as="geometry" />
        </mxCell>
        <mxCell id="8tCWAQmAQTB_diqJKxat-122" style="edgeStyle=orthogonalEdgeStyle;rounded=0;orthogonalLoop=1;jettySize=auto;html=1;" parent="1" source="8tCWAQmAQTB_diqJKxat-15" target="8tCWAQmAQTB_diqJKxat-16" edge="1">
          <mxGeometry relative="1" as="geometry" />
        </mxCell>
        <mxCell id="8tCWAQmAQTB_diqJKxat-15" value="添加商品至购物车" style="ellipse;whiteSpace=wrap;html=1;" parent="1" vertex="1">
          <mxGeometry x="340" y="440" width="100" height="70" as="geometry" />
        </mxCell>
        <mxCell id="8tCWAQmAQTB_diqJKxat-124" style="edgeStyle=orthogonalEdgeStyle;rounded=0;orthogonalLoop=1;jettySize=auto;html=1;" parent="1" source="8tCWAQmAQTB_diqJKxat-16" target="8tCWAQmAQTB_diqJKxat-21" edge="1">
          <mxGeometry relative="1" as="geometry" />
        </mxCell>
        <mxCell id="8tCWAQmAQTB_diqJKxat-16" value="购买商品" style="ellipse;whiteSpace=wrap;html=1;" parent="1" vertex="1">
          <mxGeometry x="340" y="560" width="100" height="70" as="geometry" />
        </mxCell>
        <mxCell id="8tCWAQmAQTB_diqJKxat-20" value="修改个人信息" style="ellipse;whiteSpace=wrap;html=1;" parent="1" vertex="1">
          <mxGeometry x="130" y="100" width="100" height="70" as="geometry" />
        </mxCell>
        <mxCell id="8tCWAQmAQTB_diqJKxat-21" value="发布评论" style="ellipse;whiteSpace=wrap;html=1;" parent="1" vertex="1">
          <mxGeometry x="340" y="710" width="100" height="70" as="geometry" />
        </mxCell>
        <mxCell id="abcYgRZNAxs5nldRiDmo-37" style="edgeStyle=orthogonalEdgeStyle;rounded=0;orthogonalLoop=1;jettySize=auto;html=1;entryX=0.5;entryY=1;entryDx=0;entryDy=0;startArrow=none;startFill=0;endArrow=classic;endFill=1;" edge="1" parent="1" source="8tCWAQmAQTB_diqJKxat-22" target="8tCWAQmAQTB_diqJKxat-27">
          <mxGeometry relative="1" as="geometry" />
        </mxCell>
        <mxCell id="abcYgRZNAxs5nldRiDmo-38" style="edgeStyle=orthogonalEdgeStyle;rounded=0;orthogonalLoop=1;jettySize=auto;html=1;startArrow=classic;startFill=1;endArrow=none;endFill=0;" edge="1" parent="1" source="8tCWAQmAQTB_diqJKxat-22">
          <mxGeometry relative="1" as="geometry">
            <mxPoint x="150" y="270" as="targetPoint" />
          </mxGeometry>
        </mxCell>
        <mxCell id="8tCWAQmAQTB_diqJKxat-22" value="领取优惠券" style="ellipse;whiteSpace=wrap;html=1;" parent="1" vertex="1">
          <mxGeometry x="-70" y="170" width="100" height="70" as="geometry" />
        </mxCell>
        <mxCell id="abcYgRZNAxs5nldRiDmo-31" style="edgeStyle=orthogonalEdgeStyle;rounded=0;orthogonalLoop=1;jettySize=auto;html=1;entryX=0;entryY=0;entryDx=0;entryDy=0;startArrow=none;startFill=0;endArrow=classic;endFill=1;" edge="1" parent="1" source="8tCWAQmAQTB_diqJKxat-24" target="8tCWAQmAQTB_diqJKxat-13">
          <mxGeometry relative="1" as="geometry" />
        </mxCell>
        <mxCell id="8tCWAQmAQTB_diqJKxat-24" value="修改密码" style="ellipse;whiteSpace=wrap;html=1;" parent="1" vertex="1">
          <mxGeometry x="130" y="10" width="100" height="70" as="geometry" />
        </mxCell>
        <mxCell id="8tCWAQmAQTB_diqJKxat-25" value="收藏商品" style="ellipse;whiteSpace=wrap;html=1;" parent="1" vertex="1">
          <mxGeometry x="105" y="660" width="100" height="70" as="geometry" />
        </mxCell>
        <mxCell id="8tCWAQmAQTB_diqJKxat-27" value="使用优惠券" style="ellipse;whiteSpace=wrap;html=1;" parent="1" vertex="1">
          <mxGeometry x="-70" y="20" width="100" height="70" as="geometry" />
        </mxCell>
        <mxCell id="8tCWAQmAQTB_diqJKxat-112" style="edgeStyle=orthogonalEdgeStyle;rounded=0;orthogonalLoop=1;jettySize=auto;html=1;endArrow=none;endFill=0;startArrow=classic;startFill=1;" parent="1" source="8tCWAQmAQTB_diqJKxat-30" target="8tCWAQmAQTB_diqJKxat-31" edge="1">
          <mxGeometry relative="1" as="geometry" />
        </mxCell>
        <mxCell id="8tCWAQmAQTB_diqJKxat-30" value="上架商品" style="ellipse;whiteSpace=wrap;html=1;" parent="1" vertex="1">
          <mxGeometry x="530" y="90" width="100" height="70" as="geometry" />
        </mxCell>
        <mxCell id="8tCWAQmAQTB_diqJKxat-31" value="修改商品信息" style="ellipse;whiteSpace=wrap;html=1;" parent="1" vertex="1">
          <mxGeometry x="530" y="200" width="100" height="70" as="geometry" />
        </mxCell>
        <mxCell id="abcYgRZNAxs5nldRiDmo-30" style="edgeStyle=orthogonalEdgeStyle;rounded=0;orthogonalLoop=1;jettySize=auto;html=1;entryX=0.5;entryY=0;entryDx=0;entryDy=0;startArrow=none;startFill=0;endArrow=classic;endFill=1;" edge="1" parent="1" source="8tCWAQmAQTB_diqJKxat-32" target="8tCWAQmAQTB_diqJKxat-30">
          <mxGeometry relative="1" as="geometry" />
        </mxCell>
        <mxCell id="8tCWAQmAQTB_diqJKxat-32" value="下架商品" style="ellipse;whiteSpace=wrap;html=1;" parent="1" vertex="1">
          <mxGeometry x="530" y="-50" width="100" height="70" as="geometry" />
        </mxCell>
        <mxCell id="8tCWAQmAQTB_diqJKxat-109" style="edgeStyle=orthogonalEdgeStyle;rounded=0;orthogonalLoop=1;jettySize=auto;html=1;startArrow=none;startFill=0;endArrow=classic;endFill=1;" parent="1" source="8tCWAQmAQTB_diqJKxat-33" target="8tCWAQmAQTB_diqJKxat-34" edge="1">
          <mxGeometry relative="1" as="geometry" />
        </mxCell>
        <mxCell id="abcYgRZNAxs5nldRiDmo-23" style="edgeStyle=orthogonalEdgeStyle;rounded=0;orthogonalLoop=1;jettySize=auto;html=1;startArrow=classic;startFill=1;endArrow=none;endFill=0;" edge="1" parent="1" source="8tCWAQmAQTB_diqJKxat-33">
          <mxGeometry relative="1" as="geometry">
            <mxPoint x="770" y="250" as="targetPoint" />
            <Array as="points">
              <mxPoint x="990" y="360" />
              <mxPoint x="810" y="360" />
              <mxPoint x="810" y="250" />
            </Array>
          </mxGeometry>
        </mxCell>
        <mxCell id="8tCWAQmAQTB_diqJKxat-33" value="创建优惠券" style="ellipse;whiteSpace=wrap;html=1;" parent="1" vertex="1">
          <mxGeometry x="960" y="460" width="100" height="70" as="geometry" />
        </mxCell>
        <mxCell id="8tCWAQmAQTB_diqJKxat-34" value="发放优惠券" style="ellipse;whiteSpace=wrap;html=1;" parent="1" vertex="1">
          <mxGeometry x="960" y="620" width="100" height="70" as="geometry" />
        </mxCell>
        <mxCell id="8tCWAQmAQTB_diqJKxat-107" style="edgeStyle=orthogonalEdgeStyle;rounded=0;orthogonalLoop=1;jettySize=auto;html=1;endArrow=none;endFill=0;startArrow=classic;startFill=1;" parent="1" source="8tCWAQmAQTB_diqJKxat-35" target="8tCWAQmAQTB_diqJKxat-38" edge="1">
          <mxGeometry relative="1" as="geometry" />
        </mxCell>
        <mxCell id="8tCWAQmAQTB_diqJKxat-35" value="开启优惠活动" style="ellipse;whiteSpace=wrap;html=1;" parent="1" vertex="1">
          <mxGeometry x="827" y="100" width="100" height="70" as="geometry" />
        </mxCell>
        <mxCell id="abcYgRZNAxs5nldRiDmo-21" style="edgeStyle=orthogonalEdgeStyle;rounded=0;orthogonalLoop=1;jettySize=auto;html=1;entryX=0.5;entryY=0;entryDx=0;entryDy=0;startArrow=none;startFill=0;endArrow=classic;endFill=1;" edge="1" parent="1" source="8tCWAQmAQTB_diqJKxat-36" target="8tCWAQmAQTB_diqJKxat-35">
          <mxGeometry relative="1" as="geometry" />
        </mxCell>
        <mxCell id="8tCWAQmAQTB_diqJKxat-36" value="关闭优惠活动" style="ellipse;whiteSpace=wrap;html=1;" parent="1" vertex="1">
          <mxGeometry x="827" y="-50" width="100" height="70" as="geometry" />
        </mxCell>
        <mxCell id="8tCWAQmAQTB_diqJKxat-37" value="修改店铺信息" style="ellipse;whiteSpace=wrap;html=1;" parent="1" vertex="1">
          <mxGeometry x="675" y="40" width="100" height="70" as="geometry" />
        </mxCell>
        <mxCell id="8tCWAQmAQTB_diqJKxat-38" value="修改活动信息" style="ellipse;whiteSpace=wrap;html=1;" parent="1" vertex="1">
          <mxGeometry x="827" y="220" width="100" height="70" as="geometry" />
        </mxCell>
        <mxCell id="abcYgRZNAxs5nldRiDmo-18" style="edgeStyle=orthogonalEdgeStyle;rounded=0;orthogonalLoop=1;jettySize=auto;html=1;entryX=1;entryY=0.5;entryDx=0;entryDy=0;startArrow=none;startFill=0;endArrow=classic;endFill=1;" edge="1" parent="1" source="8tCWAQmAQTB_diqJKxat-42" target="8tCWAQmAQTB_diqJKxat-59">
          <mxGeometry relative="1" as="geometry" />
        </mxCell>
        <mxCell id="8tCWAQmAQTB_diqJKxat-42" value="审核评论" style="ellipse;whiteSpace=wrap;html=1;" parent="1" vertex="1">
          <mxGeometry x="1410" y="170" width="100" height="70" as="geometry" />
        </mxCell>
        <mxCell id="8tCWAQmAQTB_diqJKxat-43" value="新增商品类别" style="ellipse;whiteSpace=wrap;html=1;" parent="1" vertex="1">
          <mxGeometry x="760" y="560" width="100" height="70" as="geometry" />
        </mxCell>
        <mxCell id="abcYgRZNAxs5nldRiDmo-20" style="edgeStyle=orthogonalEdgeStyle;rounded=0;orthogonalLoop=1;jettySize=auto;html=1;entryX=0.5;entryY=1;entryDx=0;entryDy=0;startArrow=none;startFill=0;endArrow=classic;endFill=1;" edge="1" parent="1" source="8tCWAQmAQTB_diqJKxat-44" target="8tCWAQmAQTB_diqJKxat-43">
          <mxGeometry relative="1" as="geometry">
            <Array as="points">
              <mxPoint x="810" y="670" />
              <mxPoint x="810" y="670" />
            </Array>
          </mxGeometry>
        </mxCell>
        <mxCell id="8tCWAQmAQTB_diqJKxat-44" value="变更商品类别" style="ellipse;whiteSpace=wrap;html=1;" parent="1" vertex="1">
          <mxGeometry x="750" y="740" width="100" height="70" as="geometry" />
        </mxCell>
        <mxCell id="8tCWAQmAQTB_diqJKxat-45" value="新增品牌" style="ellipse;whiteSpace=wrap;html=1;" parent="1" vertex="1">
          <mxGeometry x="550" y="600" width="100" height="70" as="geometry" />
        </mxCell>
        <mxCell id="abcYgRZNAxs5nldRiDmo-19" style="edgeStyle=orthogonalEdgeStyle;rounded=0;orthogonalLoop=1;jettySize=auto;html=1;entryX=0.5;entryY=1;entryDx=0;entryDy=0;startArrow=none;startFill=0;endArrow=classic;endFill=1;" edge="1" parent="1" source="8tCWAQmAQTB_diqJKxat-46" target="8tCWAQmAQTB_diqJKxat-45">
          <mxGeometry relative="1" as="geometry" />
        </mxCell>
        <mxCell id="8tCWAQmAQTB_diqJKxat-46" value="变更商品品牌" style="ellipse;whiteSpace=wrap;html=1;" parent="1" vertex="1">
          <mxGeometry x="550" y="740" width="100" height="70" as="geometry" />
        </mxCell>
        <mxCell id="8tCWAQmAQTB_diqJKxat-102" style="edgeStyle=orthogonalEdgeStyle;rounded=0;orthogonalLoop=1;jettySize=auto;html=1;endArrow=none;endFill=0;startArrow=classic;startFill=1;" parent="1" source="8tCWAQmAQTB_diqJKxat-50" target="8tCWAQmAQTB_diqJKxat-51" edge="1">
          <mxGeometry relative="1" as="geometry">
            <Array as="points">
              <mxPoint x="1540" y="305" />
              <mxPoint x="1540" y="305" />
            </Array>
          </mxGeometry>
        </mxCell>
        <mxCell id="8tCWAQmAQTB_diqJKxat-103" style="edgeStyle=orthogonalEdgeStyle;rounded=0;orthogonalLoop=1;jettySize=auto;html=1;startArrow=classic;startFill=1;endArrow=none;endFill=0;" parent="1" source="8tCWAQmAQTB_diqJKxat-50" target="8tCWAQmAQTB_diqJKxat-52" edge="1">
          <mxGeometry relative="1" as="geometry" />
        </mxCell>
        <mxCell id="8tCWAQmAQTB_diqJKxat-50" value="开启话题" style="ellipse;whiteSpace=wrap;html=1;" parent="1" vertex="1">
          <mxGeometry x="1360" y="270" width="100" height="70" as="geometry" />
        </mxCell>
        <mxCell id="8tCWAQmAQTB_diqJKxat-51" value="修改话题信息" style="ellipse;whiteSpace=wrap;html=1;" parent="1" vertex="1">
          <mxGeometry x="1554" y="270" width="100" height="70" as="geometry" />
        </mxCell>
        <mxCell id="8tCWAQmAQTB_diqJKxat-52" value="关闭话题" style="ellipse;whiteSpace=wrap;html=1;" parent="1" vertex="1">
          <mxGeometry x="1360" y="450" width="100" height="70" as="geometry" />
        </mxCell>
        <mxCell id="8tCWAQmAQTB_diqJKxat-55" value="回复评论" style="ellipse;whiteSpace=wrap;html=1;" parent="1" vertex="1">
          <mxGeometry x="675" y="470" width="100" height="70" as="geometry" />
        </mxCell>
        <mxCell id="8tCWAQmAQTB_diqJKxat-59" value="查看评论" style="ellipse;whiteSpace=wrap;html=1;" parent="1" vertex="1">
          <mxGeometry x="1250" y="170" width="100" height="70" as="geometry" />
        </mxCell>
        <mxCell id="abcYgRZNAxs5nldRiDmo-41" style="edgeStyle=orthogonalEdgeStyle;rounded=0;orthogonalLoop=1;jettySize=auto;html=1;startArrow=classic;startFill=1;endArrow=none;endFill=0;" edge="1" parent="1" source="abcYgRZNAxs5nldRiDmo-10">
          <mxGeometry relative="1" as="geometry">
            <mxPoint x="130" y="390" as="targetPoint" />
          </mxGeometry>
        </mxCell>
        <mxCell id="abcYgRZNAxs5nldRiDmo-10" value="查看话题" style="ellipse;whiteSpace=wrap;html=1;" vertex="1" parent="1">
          <mxGeometry x="-120" y="510" width="100" height="70" as="geometry" />
        </mxCell>
        <mxCell id="abcYgRZNAxs5nldRiDmo-17" style="edgeStyle=orthogonalEdgeStyle;rounded=0;orthogonalLoop=1;jettySize=auto;html=1;entryX=0.5;entryY=0;entryDx=0;entryDy=0;startArrow=none;startFill=0;endArrow=classic;endFill=1;" edge="1" parent="1" source="abcYgRZNAxs5nldRiDmo-16" target="8tCWAQmAQTB_diqJKxat-59">
          <mxGeometry relative="1" as="geometry" />
        </mxCell>
        <mxCell id="abcYgRZNAxs5nldRiDmo-16" value="删除评论" style="ellipse;whiteSpace=wrap;html=1;" vertex="1" parent="1">
          <mxGeometry x="1250" y="30" width="100" height="70" as="geometry" />
        </mxCell>
        <mxCell id="abcYgRZNAxs5nldRiDmo-25" style="edgeStyle=orthogonalEdgeStyle;rounded=0;orthogonalLoop=1;jettySize=auto;html=1;entryX=0.99;entryY=0.771;entryDx=0;entryDy=0;entryPerimeter=0;startArrow=none;startFill=0;endArrow=classic;endFill=1;" edge="1" parent="1" source="abcYgRZNAxs5nldRiDmo-24" target="8tCWAQmAQTB_diqJKxat-50">
          <mxGeometry relative="1" as="geometry" />
        </mxCell>
        <mxCell id="abcYgRZNAxs5nldRiDmo-24" value="向话题中添加商品" style="ellipse;whiteSpace=wrap;html=1;" vertex="1" parent="1">
          <mxGeometry x="1510" y="450" width="100" height="70" as="geometry" />
        </mxCell>
        <mxCell id="abcYgRZNAxs5nldRiDmo-27" style="edgeStyle=orthogonalEdgeStyle;rounded=0;orthogonalLoop=1;jettySize=auto;html=1;entryX=0.09;entryY=0.829;entryDx=0;entryDy=0;entryPerimeter=0;startArrow=none;startFill=0;endArrow=classic;endFill=1;" edge="1" parent="1" source="abcYgRZNAxs5nldRiDmo-26" target="8tCWAQmAQTB_diqJKxat-50">
          <mxGeometry relative="1" as="geometry">
            <Array as="points">
              <mxPoint x="1270" y="328" />
            </Array>
          </mxGeometry>
        </mxCell>
        <mxCell id="abcYgRZNAxs5nldRiDmo-26" value="将商品从话题中移除" style="ellipse;whiteSpace=wrap;html=1;" vertex="1" parent="1">
          <mxGeometry x="1210" y="450" width="100" height="70" as="geometry" />
        </mxCell>
        <mxCell id="abcYgRZNAxs5nldRiDmo-29" style="edgeStyle=orthogonalEdgeStyle;rounded=0;orthogonalLoop=1;jettySize=auto;html=1;entryX=0.5;entryY=1;entryDx=0;entryDy=0;startArrow=none;startFill=0;endArrow=classic;endFill=1;" edge="1" parent="1" source="abcYgRZNAxs5nldRiDmo-28" target="8tCWAQmAQTB_diqJKxat-34">
          <mxGeometry relative="1" as="geometry" />
        </mxCell>
        <mxCell id="abcYgRZNAxs5nldRiDmo-28" value="作废优惠券" style="ellipse;whiteSpace=wrap;html=1;" vertex="1" parent="1">
          <mxGeometry x="960" y="760" width="100" height="70" as="geometry" />
        </mxCell>
        <mxCell id="abcYgRZNAxs5nldRiDmo-34" style="edgeStyle=orthogonalEdgeStyle;rounded=0;orthogonalLoop=1;jettySize=auto;html=1;startArrow=none;startFill=0;endArrow=classic;endFill=1;" edge="1" parent="1" source="abcYgRZNAxs5nldRiDmo-32">
          <mxGeometry relative="1" as="geometry">
            <mxPoint x="530" y="110" as="targetPoint" />
            <Array as="points">
              <mxPoint x="460" y="110" />
              <mxPoint x="530" y="110" />
            </Array>
          </mxGeometry>
        </mxCell>
        <mxCell id="abcYgRZNAxs5nldRiDmo-32" value="设置预售商品" style="ellipse;whiteSpace=wrap;html=1;" vertex="1" parent="1">
          <mxGeometry x="410" y="-50" width="100" height="70" as="geometry" />
        </mxCell>
        <mxCell id="abcYgRZNAxs5nldRiDmo-35" style="edgeStyle=orthogonalEdgeStyle;rounded=0;orthogonalLoop=1;jettySize=auto;html=1;entryX=0;entryY=0.5;entryDx=0;entryDy=0;startArrow=none;startFill=0;endArrow=classic;endFill=1;" edge="1" parent="1" source="abcYgRZNAxs5nldRiDmo-33" target="8tCWAQmAQTB_diqJKxat-30">
          <mxGeometry relative="1" as="geometry">
            <Array as="points">
              <mxPoint x="464" y="125" />
            </Array>
          </mxGeometry>
        </mxCell>
        <mxCell id="abcYgRZNAxs5nldRiDmo-33" value="设置团购商品" style="ellipse;whiteSpace=wrap;html=1;" vertex="1" parent="1">
          <mxGeometry x="414" y="200" width="100" height="70" as="geometry" />
        </mxCell>
      </root>
    </mxGraphModel>
  </diagram>
</mxfile>
